<svg xmlns="http://www.w3.org/2000/svg" xmlns:xlink="http://www.w3.org/1999/xlink" width="18.977" height="18.742" viewBox="0 0 18.977 18.742">
  <defs>
    <linearGradient id="linear-gradient" x1="0.5" x2="0.5" y2="1" gradientUnits="objectBoundingBox">
      <stop offset="0" stop-color="#e3e3e3"/>
      <stop offset="1" stop-color="#b9b9b9"/>
    </linearGradient>
  </defs>
  <path id="全部-灰" d="M139.646,262.233h-5.552a1.265,1.265,0,0,1-1.262-1.261V255.42a1.265,1.265,0,0,1,1.262-1.262h5.552a1.265,1.265,0,0,1,1.262,1.262v5.552a1.265,1.265,0,0,1-1.262,1.261Zm0,10.131h-5.552a1.265,1.265,0,0,1-1.262-1.262v-5.552a1.265,1.265,0,0,1,1.262-1.262h5.552a1.265,1.265,0,0,1,1.262,1.262V271.1a1.265,1.265,0,0,1-1.262,1.262Zm6.8-9.919-3.462-3.462a1.116,1.116,0,0,1,0-1.573l3.462-3.462a1.116,1.116,0,0,1,1.573,0l3.462,3.462a1.116,1.116,0,0,1,0,1.573l-3.462,3.462a1.116,1.116,0,0,1-1.573,0Zm3.563,9.919H144.46A1.266,1.266,0,0,1,143.2,271.1v-5.552a1.266,1.266,0,0,1,1.262-1.262h5.552a1.266,1.266,0,0,1,1.262,1.262V271.1a1.266,1.266,0,0,1-1.262,1.262Zm0,0" transform="translate(-132.833 -253.622)" fill="url(#linear-gradient)"/>
</svg>
