<svg xmlns="http://www.w3.org/2000/svg" width="11.841" height="14" viewBox="0 0 11.841 14">
  <path id="路径_24796" data-name="路径 24796" d="M3064.648,67.992a1,1,0,0,1,.406.084,1.038,1.038,0,0,1,.486.38.979.979,0,0,1,.181.574V80.956a.98.98,0,0,1-.181.574,1.037,1.037,0,0,1-.486.38,1.05,1.05,0,0,1-.406.074,1.106,1.106,0,0,1-.768-.3l-4.078-3.925-4.081,3.922a1.1,1.1,0,0,1-.768.306,1,1,0,0,1-.406-.084,1.046,1.046,0,0,1-.487-.38.98.98,0,0,1-.18-.574V69.028a.98.98,0,0,1,.18-.574,1.045,1.045,0,0,1,.487-.38,1.006,1.006,0,0,1,.406-.084h9.7Zm0,0" transform="translate(-3053.88 -67.99)"/>
</svg>
