<svg xmlns="http://www.w3.org/2000/svg" width="18" height="18" viewBox="0 0 18 18">
  <path id="多选-选中" d="M-183.124,39.335a9,9,0,0,0-9,9,9,9,0,0,0,9,9,9,9,0,0,0,9-9,9,9,0,0,0-2.636-6.368,9,9,0,0,0-6.368-2.636ZM-177.959,46l-5.825,5.82a.815.815,0,0,1-.585.248.815.815,0,0,1-.585-.248l-3.351-3.351a.828.828,0,0,1,0-1.17.828.828,0,0,1,1.17,0l2.778,2.778,5.243-5.224a.828.828,0,0,1,.8-.219.828.828,0,0,1,.588.588.827.827,0,0,1-.219.8Zm0,0" transform="translate(192.12 -39.335)" fill="#c3a475"/>
</svg>
