<svg xmlns="http://www.w3.org/2000/svg" width="11.113" height="10" viewBox="0 0 11.113 10">
  <path id="路径_858" data-name="路径 858" d="M-216.817-32.3a2.679,2.679,0,0,1,.611.919,2.831,2.831,0,0,1,.2,1.044,2.831,2.831,0,0,1-.2,1.044,2.68,2.68,0,0,1-.611.919l-4.371,4.337a3.424,3.424,0,0,1-1.01.685,3.616,3.616,0,0,1-1.267.32,3.568,3.568,0,0,1-1.364-.183,3.26,3.26,0,0,1-1.29-.822,3.249,3.249,0,0,1-.81-1.261,3.473,3.473,0,0,1-.183-1.352,3.648,3.648,0,0,1,.314-1.267,3.358,3.358,0,0,1,.679-1l3.881-3.846a.3.3,0,0,1,.3-.051.648.648,0,0,1,.3.154.772.772,0,0,1,.148.3.29.29,0,0,1-.046.3l-3.869,3.835a2.742,2.742,0,0,0-.514.719,2.324,2.324,0,0,0-.24.879,2.3,2.3,0,0,0,.137.947,2.524,2.524,0,0,0,.616.924,2.294,2.294,0,0,0,.885.565,2.5,2.5,0,0,0,.964.137,2.757,2.757,0,0,0,.913-.211,2.3,2.3,0,0,0,.742-.491l4.36-4.326a1.911,1.911,0,0,0,.439-.639,1.688,1.688,0,0,0,.126-.656,1.507,1.507,0,0,0-.154-.633,2.088,2.088,0,0,0-.411-.571,1.437,1.437,0,0,0-1.1-.451,1.9,1.9,0,0,0-1.227.645l-3.938,3.915a.786.786,0,0,0-.257.582.731.731,0,0,0,.211.525.653.653,0,0,0,.576.205.9.9,0,0,0,.531-.251l3.572-3.55a.3.3,0,0,1,.3-.051.647.647,0,0,1,.3.154.688.688,0,0,1,.16.3.29.29,0,0,1-.046.3l-3.584,3.55a2.584,2.584,0,0,1-.788.571,1.6,1.6,0,0,1-.708.143,1.392,1.392,0,0,1-.616-.177,2.6,2.6,0,0,1-.525-.388,1.828,1.828,0,0,1-.348-.468,1.517,1.517,0,0,1-.177-.628,1.772,1.772,0,0,1,.12-.73,2.188,2.188,0,0,1,.554-.787q.205-.205.365-.377.137-.148.257-.262l.131-.126,3.184-3.173a3.281,3.281,0,0,1,.9-.645,2.677,2.677,0,0,1,.987-.268,2.438,2.438,0,0,1,.987.137,2.393,2.393,0,0,1,.9.582Zm0,0" transform="translate(227.119 33.026)" fill="#c3a475"/>
</svg>
