<svg xmlns="http://www.w3.org/2000/svg" width="18.666" height="17" viewBox="0 0 18.666 17">
  <g id="附言_意见" data-name="附言/意见" transform="translate(47.12 -108.074)">
    <path id="路径_867" data-name="路径 867" d="M-29.436,108.074H-42.323a.984.984,0,0,0-.982.982v.47c0,.382,0,.857,0,1.565h-2.829a.984.984,0,0,0-.982.984v9.562a.983.983,0,0,0,.981.984h.506l1.1,0-.008,1.467a.98.98,0,0,0,.474.85.98.98,0,0,0,.973.021l4.331-2.338h6.618a.984.984,0,0,0,.982-.984v-9.557a.984.984,0,0,0-.982-.984h-9.766c0-.706,0-1.18,0-1.562v-.052h12.051v7H-29.9l-.452.011a.7.7,0,0,0-.674.716.7.7,0,0,0,.7.688h.03c.066,0,.235-.006.424-.01l.459-.011a.978.978,0,0,0,.955-.984v-7.831a.984.984,0,0,0-.982-.984Zm-3.125,13.138h-6.3a.982.982,0,0,0-.466.118l-3.8,2.053.006-1.182a.984.984,0,0,0-.286-.7.984.984,0,0,0-.7-.29h0c-.688,0-1.151,0-1.527,0h-.081v-8.721h13.159Zm0,0" transform="translate(0 0)" fill="#999"/>
    <path id="路径_868" data-name="路径 868" d="M87.567,401.259a.978.978,0,1,0-.978.97.978.978,0,0,0,.978-.97Zm3.81,0a.973.973,0,1,0-.288.688.978.978,0,0,0,.288-.688Zm3.81,0a.973.973,0,1,0-.288.688.978.978,0,0,0,.288-.688Zm0,0" transform="translate(-129.466 -284.372)" fill="#c3a475"/>
  </g>
</svg>
