<svg xmlns="http://www.w3.org/2000/svg" width="19.303" height="18" viewBox="0 0 19.303 18">
  <g id="移交" transform="translate(3 -103.312)">
    <path id="路径_911" data-name="路径 911" d="M202.306,226.2a6.328,6.328,0,0,1-6.321,6.321h-4.128l1.7,1.351a.784.784,0,0,1,0,1.107.8.8,0,0,1-1.107,0l-3.04-2.688a.783.783,0,0,1,0-1.107l2.688-3.04a.8.8,0,0,1,1.108,0,.784.784,0,0,1,0,1.107l-1.351,1.7h4.128a4.752,4.752,0,0,0,1.093-9.378,1.1,1.1,0,0,0-.18-1.337l-.333-.333a6.329,6.329,0,0,1,5.741,6.293Z" transform="translate(-186.004 -113.885)" fill="#999"/>
    <path id="路径_912" data-name="路径 912" d="M2.08,117.834a1.106,1.106,0,0,1,.148-.546,4.752,4.752,0,0,1,1.093-9.377H7.448l-1.7,1.7a.784.784,0,0,0,0,1.108.8.8,0,0,0,1.107,0l3.04-3.04a.783.783,0,0,0,0-1.107l-3.04-3.04a.8.8,0,0,0-1.107,0,.784.784,0,0,0,0,1.107l1.7,1.7H3.321a6.32,6.32,0,0,0-.58,12.614l-.333-.333a1.111,1.111,0,0,1-.328-.791Z" transform="translate(0 0)" fill="#999"/>
  </g>
</svg>
