<svg xmlns="http://www.w3.org/2000/svg" xmlns:xlink="http://www.w3.org/1999/xlink" width="14.372" height="14" viewBox="0 0 14.372 14"><defs><clipPath id="a"><rect width="14.372" height="14" fill="#c3a475"/></clipPath></defs><g transform="translate(0 0)"><g transform="translate(0 0)"><g transform="translate(0 0)" clip-path="url(#a)"><path d="M16.332,141.28v5.866a1.682,1.682,0,0,1-1.68,1.68H11.205L7.723,151.44a.39.39,0,0,1-.625-.309v-2.3H5.705a1.682,1.682,0,0,1-1.68-1.68V141.28a1.682,1.682,0,0,1,1.68-1.68h8.947a1.682,1.682,0,0,1,1.68,1.68ZM7.9,144.26a.768.768,0,1,0-.768.768.769.769,0,0,0,.768-.768Zm3.08,0a.768.768,0,1,0-.768.768.769.769,0,0,0,.768-.768Zm3.08,0a.768.768,0,1,0-.768.768.769.769,0,0,0,.768-.768Zm0,0" transform="translate(-4.012 -137.537)" fill="#c3a475"/><path d="M-104.094,23.992h-9.026a1.68,1.68,0,0,1,1.673-1.537h8.372a2.258,2.258,0,0,1,2.255,2.255v5.3a1.675,1.675,0,0,1-1.537,1.673V25.729a1.744,1.744,0,0,0-1.738-1.738Zm0,0" transform="translate(115.194 -22.445)" fill="#c3a475"/></g></g></g></svg>