<svg xmlns="http://www.w3.org/2000/svg" xmlns:xlink="http://www.w3.org/1999/xlink" width="13.352" height="14" viewBox="0 0 13.352 14"><defs><clipPath id="a"><rect width="13.352" height="14" fill="#c3a475"/></clipPath></defs><g transform="translate(32 -76.89)"><g transform="translate(-32 76.89)"><g transform="translate(0 0)" clip-path="url(#a)"><path d="M-25.171,86.1l.1-.02.053-.01.054-.01.227-.042a4.991,4.991,0,0,1,.509-.064h0a1.961,1.961,0,0,1,1.294.395,4.909,4.909,0,0,1,1.19,1.506,1.653,1.653,0,0,1,.042,1.68A3.311,3.311,0,0,1-23,90.755a2.672,2.672,0,0,1-2.037.229,4.171,4.171,0,0,1-1.706-.922c-.021-.019-.568-.5-.746-.663a12.293,12.293,0,0,1-1.224-1.281,14.779,14.779,0,0,1-1.395-2.035,14.183,14.183,0,0,1-1.026-2.145,12.626,12.626,0,0,1-.486-1.649c-.015-.065-.193-.879-.248-1.1a3.084,3.084,0,0,1,1.268-3.6,3.2,3.2,0,0,1,1.742-.48,1.665,1.665,0,0,1,1.4.838,4.975,4.975,0,0,1,.739,1.842,1.915,1.915,0,0,1-.136.891,1.786,1.786,0,0,1-.2.367,2.217,2.217,0,0,1-.363.464l-.127.135c-.05.053-.088.094-.124.134-.308.343-.429.585-.392.833a7.292,7.292,0,0,0,.766,1.84,6.544,6.544,0,0,0,1.2,1.573c.207.149.424.159.916.066Zm3.71-1.862a.585.585,0,0,1-.564.6.585.585,0,0,1-.6-.564,3.923,3.923,0,0,0-1.73-3.121.585.585,0,0,1-.157-.812.585.585,0,0,1,.812-.157,5.092,5.092,0,0,1,2.244,4.049Zm2.8-.024a.585.585,0,0,1-.564.6.585.585,0,0,1-.6-.564,6.723,6.723,0,0,0-3.113-5.607.585.585,0,0,1-.2-.8.585.585,0,0,1,.8-.2,7.888,7.888,0,0,1,3.681,6.569Zm0,0" transform="translate(32.001 -77.104)" fill="#c3a475"/></g></g></g></svg>