<svg xmlns="http://www.w3.org/2000/svg" width="17" height="17" viewBox="0 0 17 17">
  <path id="下级" d="M-68.075,56.735h6.182a.773.773,0,0,0,.773-.773V52.872a.773.773,0,0,0-.773-.773h-6.182a.773.773,0,0,0-.773.773v.773h-5.409V51.326h5.409a.773.773,0,0,0,.773-.773V46.69a.773.773,0,0,0-.773-.773h-8.5a.773.773,0,0,0-.773.773v3.864a.773.773,0,0,0,.773.773H-75.8V60.6a.773.773,0,0,0,.773.773h6.182v.773a.773.773,0,0,0,.773.773h6.182a.773.773,0,0,0,.773-.773V59.053a.773.773,0,0,0-.773-.773h-6.182a.773.773,0,0,0-.773.773v.773h-5.409V55.19h5.409v.773a.773.773,0,0,0,.773.773Zm.773-3.091h4.636V55.19H-67.3Zm-9.273-3.864V47.462h6.955v2.318ZM-67.3,59.826h4.636v1.546H-67.3Zm0,0" transform="translate(78.12 -45.917)" fill="#c3a475"/>
</svg>
