<svg xmlns="http://www.w3.org/2000/svg" xmlns:xlink="http://www.w3.org/1999/xlink" width="34.993" height="42" viewBox="0 0 34.993 42">
  <defs>
    <clipPath id="clip-path">
      <rect id="矩形_830" data-name="矩形 830" width="34.993" height="42" fill="none"/>
    </clipPath>
  </defs>
  <g id="pdf" transform="translate(23 -37.89)">
    <g id="组_920" data-name="组 920" transform="translate(-23 37.89)">
      <g id="组_919" data-name="组 919" transform="translate(0 0)" clip-path="url(#clip-path)">
        <path id="路径_846" data-name="路径 846" d="M-21.02,37.89a2.014,2.014,0,0,0-1.47.63,2.23,2.23,0,0,0-.63,1.47v37.8a2.015,2.015,0,0,0,.63,1.47,2.073,2.073,0,0,0,1.47.63H9.78a2.015,2.015,0,0,0,1.47-.63,2.073,2.073,0,0,0,.63-1.47v-28L-.02,37.89Zm0,0" transform="translate(23.113 -37.89)" fill="#ff5562"/>
      </g>
    </g>
    <path id="路径_847" data-name="路径 847" d="M411.177,49.79h-9.8a2.154,2.154,0,0,1-2.1-2.1v-9.8Zm0,0" transform="translate(-399.184)" fill="#ffbbc0"/>
    <path id="路径_848" data-name="路径 848" d="M97.7,309.436c-2.2,0-4.165-3.78-5.215-6.23a38.022,38.022,0,0,0-5.53-1.855c-1.645,1.085-4.41,2.695-6.545,2.695a2.537,2.537,0,0,1-2.625-1.82,2.112,2.112,0,0,1,.245-1.96q.84-1.155,3.465-1.155a22.6,22.6,0,0,1,5.18.735,31.246,31.246,0,0,0,3.745-3.08c-.525-2.45-1.085-6.405.35-8.225a2.707,2.707,0,0,1,3.08-.77,2.814,2.814,0,0,1,2.135,1.96c.595,2.38-2.135,5.6-3.99,7.49a35.319,35.319,0,0,0,1.61,4.935c2.66,1.19,5.81,2.94,6.16,4.865a1.934,1.934,0,0,1-.6,1.82,2.255,2.255,0,0,1-1.47.6Zm-3.255-5.32c1.33,2.695,2.59,3.955,3.255,3.955a.707.707,0,0,0,.455-.21c.245-.245.245-.42.21-.56-.14-.7-1.26-1.855-3.92-3.185Zm-12.95-3.6c-1.715,0-2.2.42-2.345.6a.815.815,0,0,0-.035.735c.105.42.385.84,1.295.84a10.353,10.353,0,0,0,4.62-1.75,18.057,18.057,0,0,0-3.535-.42Zm6.93-.21c1.12.315,2.275.7,3.36,1.12-.385-1.015-.7-2.065-.98-3.08-.77.665-1.575,1.33-2.38,1.96ZM92.763,289a1.13,1.13,0,0,0-.91.42c-.735.91-.8,3.22-.245,6.16,2.135-2.275,3.29-4.375,3.01-5.5-.035-.175-.175-.665-1.155-.945a1.9,1.9,0,0,0-.7-.14Zm0,0" transform="translate(-95.154 -236.056)" fill="#fff"/>
  </g>
</svg>
