<svg xmlns="http://www.w3.org/2000/svg" xmlns:xlink="http://www.w3.org/1999/xlink" width="34.716" height="41.667" viewBox="0 0 34.716 41.667">
  <defs>
    <clipPath id="clip-path">
      <rect id="矩形_864" data-name="矩形 864" width="34.716" height="41.667" fill="none"/>
    </clipPath>
  </defs>
  <g id="ppt" transform="translate(23 -37.89)">
    <g id="组_1036" data-name="组 1036" transform="translate(-23 37.89)">
      <g id="组_1035" data-name="组 1035" transform="translate(0 0)" clip-path="url(#clip-path)">
        <path id="路径_866" data-name="路径 866" d="M-21.037,37.89a2,2,0,0,0-1.458.625,2.212,2.212,0,0,0-.625,1.458v37.5a2,2,0,0,0,.625,1.458,2.057,2.057,0,0,0,1.458.625H9.519a2,2,0,0,0,1.458-.625,2.057,2.057,0,0,0,.625-1.458V49.7L-.2,37.89Zm0,0" transform="translate(23.113 -37.89)" fill="#ff8976"/>
      </g>
    </g>
    <path id="路径_867" data-name="路径 867" d="M411.083,49.7h-9.722a2.137,2.137,0,0,1-2.084-2.083V37.89Zm0,0" transform="translate(-399.367)" fill="#ffd0c8"/>
    <path id="路径_868" data-name="路径 868" d="M195.759,320.769H203.4c3.056,0,4.028,2.049,4.028,4.236a3.888,3.888,0,0,1-3.993,4.2h-5.069v5.208h-2.6Zm2.6,6.319h4.2c1.493,0,2.292-.451,2.292-2.048a1.872,1.872,0,0,0-2.083-2.083h-4.41Zm0,0" transform="translate(-206.891 -267.532)" fill="#fff"/>
  </g>
</svg>
