<?xml version="1.0" encoding="UTF-8"?>
<svg width="474px" height="269px" viewBox="0 0 474 269" version="1.1" xmlns="http://www.w3.org/2000/svg" xmlns:xlink="http://www.w3.org/1999/xlink">
    <title>暂无数据@3x</title>
    <defs>
        <radialGradient cx="67.6%" cy="28.4024%" fx="67.6%" fy="28.4024%" r="72.5%" id="radialGradient-1">
            <stop stop-color="#F8F1E5" offset="0%"></stop>
            <stop stop-color="#CCBAA0" offset="100%"></stop>
        </radialGradient>
        <linearGradient x1="35.2%" y1="50%" x2="148.9%" y2="84.7%" id="linearGradient-2">
            <stop stop-color="#FFFFFF" stop-opacity="0" offset="0%"></stop>
            <stop stop-color="#EAD8C1" offset="51.4352103%"></stop>
            <stop stop-color="#CDA36E" offset="100%"></stop>
        </linearGradient>
        <linearGradient x1="53%" y1="100%" x2="14.2%" y2="3.4%" id="linearGradient-3">
            <stop stop-color="#A19FA0" offset="0%"></stop>
            <stop stop-color="#D6D6D6" offset="100%"></stop>
        </linearGradient>
        <linearGradient x1="8.5%" y1="0%" x2="128.4%" y2="130.7%" id="linearGradient-4">
            <stop stop-color="#E8E8E8" offset="0%"></stop>
            <stop stop-color="#D5D5D5" offset="100%"></stop>
        </linearGradient>
        <linearGradient x1="106.5%" y1="-7.4%" x2="-11.6%" y2="124.4%" id="linearGradient-5">
            <stop stop-color="#FFFFFF" offset="0%"></stop>
            <stop stop-color="#D1CFD0" offset="100%"></stop>
        </linearGradient>
        <linearGradient x1="50%" y1="0%" x2="50%" y2="100%" id="linearGradient-6">
            <stop stop-color="#FFFFFF" offset="0%"></stop>
            <stop stop-color="#A7A5A6" offset="100%"></stop>
        </linearGradient>
        <linearGradient x1="67.7%" y1="30.8%" x2="80.2%" y2="106.3%" id="linearGradient-7">
            <stop stop-color="#5E5C5C" offset="0%"></stop>
            <stop stop-color="#B9B9B9" offset="100%"></stop>
        </linearGradient>
        <linearGradient x1="111.5%" y1="115%" x2="9.43689571e-14%" y2="-10.3%" id="linearGradient-8">
            <stop stop-color="#FFFFFF" offset="0%"></stop>
            <stop stop-color="#D0CECF" offset="100%"></stop>
        </linearGradient>
        <linearGradient x1="7.5%" y1="29.4%" x2="50%" y2="100%" id="linearGradient-9">
            <stop stop-color="#9C9A9B" offset="0%"></stop>
            <stop stop-color="#A3A1A2" offset="100%"></stop>
        </linearGradient>
        <linearGradient x1="3.4%" y1="115.7%" x2="100%" y2="-11.5%" id="linearGradient-10">
            <stop stop-color="#EAE8E9" offset="0%"></stop>
            <stop stop-color="#EAE8E9" offset="100%"></stop>
        </linearGradient>
        <linearGradient x1="114.6%" y1="0%" x2="0%" y2="100%" id="linearGradient-11">
            <stop stop-color="#F4ECDF" offset="0%"></stop>
            <stop stop-color="#D0BFA6" offset="100%"></stop>
        </linearGradient>
        <radialGradient cx="67.6%" cy="28.4024%" fx="67.6%" fy="28.4024%" r="72.5%" id="radialGradient-12">
            <stop stop-color="#F9F7F4" offset="0%"></stop>
            <stop stop-color="#D1D1D1" offset="100%"></stop>
        </radialGradient>
        <linearGradient x1="100%" y1="17.6%" x2="17.3%" y2="100%" id="linearGradient-13">
            <stop stop-color="#F5EDE0" offset="0%"></stop>
            <stop stop-color="#CCBAA0" offset="100%"></stop>
        </linearGradient>
    </defs>
    <g id="空状态页" stroke="none" stroke-width="1" fill="none" fill-rule="evenodd">
        <g id="1" transform="translate(-138.000000, -480.000000)" fill-rule="nonzero">
            <g id="组_661" transform="translate(138.000000, 480.000000)">
                <g id="组件_16_1" transform="translate(0.000000, 0.760000)">
                    <circle id="椭圆_19" fill="url(#radialGradient-1)" cx="113.838" cy="48.562" r="13"></circle>
                    <circle id="椭圆_20" fill="url(#radialGradient-1)" opacity="0.78" cx="347.294" cy="129.346" r="10"></circle>
                    <polygon id="路径_766" fill="url(#linearGradient-2)" opacity="0.8" style="mix-blend-mode: multiply;" points="0 217.222 125.95 201.872 183.022 252.45 59.822 267.604"></polygon>
                    <polygon id="路径_760" fill="url(#linearGradient-3)" points="299.134 96.23 357.386 140.996 357.386 220.764 299.134 220.764"></polygon>
                    <polygon id="路径_761" fill="url(#linearGradient-4)" points="123.852 111.474 299.652 96.648 301.81 201.556 122.488 205.492"></polygon>
                    <polygon id="路径_758" fill="url(#linearGradient-5)" points="182.472 159.442 357.78 141.572 357.78 238.712 182.472 252.724"></polygon>
                    <polygon id="路径_759" fill="url(#linearGradient-6)" points="122.802 110.714 182.628 159.362 182.628 252.562 122.802 207.538"></polygon>
                    <g id="编组" transform="translate(108.000000, 118.300000)" fill="url(#linearGradient-7)" opacity="0.67">
                        <polygon id="路径_765-2" points="19.8 0.646 73.6 41.712 62.842 74.712 0.064 26.112"></polygon>
                    </g>
                    <g id="编组" transform="translate(101.000000, 110.300000)" fill="url(#linearGradient-8)">
                        <polygon id="路径_762-2" points="22.46 0.914 81.368 48.8 60.178 86.848 0.286 37.518"></polygon>
                    </g>
                    <g id="编组" transform="translate(182.000000, 142.300000)" fill="url(#linearGradient-9)" opacity="0.67">
                        <polygon id="路径_764-2" points="173.22 0.92 0.43 18.042 4.956 51.498 180.106 35.754"></polygon>
                    </g>
                    <g id="编组" transform="translate(182.000000, 140.300000)" fill="url(#linearGradient-10)">
                        <polygon id="路径_763-2" points="176.038 0.96 0.494 19.196 8.894 59.014 186.996 45.042"></polygon>
                    </g>
                    <path d="M68.866,224.098 L73.88,224.098 C75.2312054,224.125226 76.3122963,225.22852 76.312,226.58 C76.3221566,227.232672 76.0708035,227.862287 75.6139586,228.328524 C75.1571137,228.794762 74.532744,229.058874 73.88,229.062 L68.866,229.062 L68.866,234.076 C68.8398345,235.427663 67.7359157,236.509343 66.384,236.508 C65.731473,236.518251 65.1019913,236.26689 64.636,235.81 C64.1699183,235.353156 63.9062797,234.728636 63.904,234.076 L63.904,229.062 L58.89,229.062 C57.5383368,229.035835 56.4566565,227.931916 56.458,226.58 C56.4478434,225.927328 56.6991965,225.297713 57.1560414,224.831476 C57.6128863,224.365238 58.237256,224.101126 58.89,224.098 L63.904,224.098 L63.904,219.086 C63.930151,217.735115 65.0328621,216.653704 66.384,216.654 C67.0366725,216.643843 67.666287,216.895196 68.1325243,217.352041 C68.5987616,217.808886 68.862874,218.433256 68.866,219.086 L68.866,224.098 Z" id="路径_767" fill="#C5C5C5" opacity="0.38"></path>
                    <path d="M392.48,201.85 L392.48,198.45 C392.478458,198.006948 392.299442,197.58299 391.982977,197.272914 C391.666512,196.962838 391.238991,196.792506 390.796,196.8 C389.87907,196.799763 389.130513,197.533257 389.112,198.45 L389.112,201.85 L385.712,201.85 C385.268948,201.851542 384.84499,202.030558 384.534914,202.347023 C384.224838,202.663488 384.054506,203.091009 384.062,203.534 C384.062878,204.450495 384.795714,205.198431 385.712,205.218 L389.112,205.218 L389.112,208.618 C389.114082,209.060882 389.293269,209.484523 389.609615,209.794482 C389.925961,210.10444 390.353167,210.27495 390.796,210.268 C391.71293,210.268204 392.461487,209.534743 392.48,208.618 L392.48,205.218 L395.88,205.218 C396.322882,205.215918 396.746523,205.036731 397.056482,204.720385 C397.36644,204.404039 397.53695,203.976833 397.53,203.534 C397.530204,202.61707 396.796743,201.868513 395.88,201.85 L392.48,201.85 Z" id="路径_768" fill="url(#linearGradient-11)" opacity="0.73"></path>
                    <path d="M91.594,66.984 L97.666,66.984 C98.4822892,66.9770782 99.2677239,67.2955443 99.8486891,67.8690034 C100.429654,68.4424626 100.758307,69.2236898 100.762,70.04 C100.756713,70.8558113 100.427554,71.6361069 99.8469372,72.2092218 C99.2663209,72.7823366 98.4818111,73.1013216 97.666,73.096 L91.594,73.096 L91.594,79.168 C91.6014568,79.9846342 91.2832275,80.7705842 90.7097104,81.3519835 C90.1361932,81.9333827 89.3546599,82.2623098 88.538,82.266 C87.7224328,82.2603612 86.9425362,81.9308477 86.37,81.35 C85.7965337,80.7692428 85.4777478,79.9841516 85.484,79.168 L85.484,73.096 L79.412,73.096 C78.5953595,73.1037598 77.8093267,72.7856037 77.228,72.212 C76.6467224,71.6382831 76.3178296,70.856713 76.314,70.04 C76.3261089,68.3408356 77.7128286,66.9729159 79.412,66.984 L85.484,66.984 L85.484,60.912 C85.4765438,60.0962412 85.7942886,59.3111027 86.3669982,58.7301365 C86.9397078,58.1491702 87.720218,57.8202204 88.536,57.816 C89.3518113,57.8212871 90.1321069,58.1504464 90.7052218,58.7310628 C91.2783366,59.3116791 91.5973216,60.0961889 91.592,60.912 L91.594,66.984 Z" id="路径_769" fill="#C5C5C5" opacity="0.71"></path>
                    <circle id="椭圆_18" fill="url(#radialGradient-1)" cx="198.312" cy="105.11" r="23"></circle>
                    <path d="M371.162,73.49 L376.728,73.49 C378.227863,73.5194147 379.428358,74.743849 379.428,76.244 C379.439767,76.9687842 379.160891,77.6681147 378.653612,78.1859157 C378.146332,78.7037168 377.452873,78.9968881 376.728,79 L371.162,79 L371.162,84.566 C371.132571,86.0666409 369.906929,87.2673785 368.406,87.266 C367.681242,87.2778932 366.981885,86.9991586 366.464,86.492 C365.946492,85.9845363 365.654012,85.2907964 365.652,84.566 L365.652,79 L360.076,79 C358.575359,78.9705706 357.374621,77.7449289 357.376,76.244 C357.364773,75.5195595 357.643888,74.8207466 358.151109,74.3033812 C358.65833,73.7860158 359.351479,73.4931189 360.076,73.49 L365.642,73.49 L365.642,67.926 C365.671415,66.4261373 366.895849,65.2256422 368.396,65.226 C369.120784,65.2142327 369.820115,65.4931085 370.337916,66.0003882 C370.855717,66.5076679 371.148888,67.201127 371.152,67.926 L371.162,73.49 Z" id="路径_770" fill="#DEDCDD" opacity="0.61"></path>
                    <circle id="椭圆_21" fill="url(#radialGradient-12)" opacity="0.74" cx="173.502" cy="46.786" r="7.5"></circle>
                    <path d="M194.948,7.446 L194.948,2.432 C194.945956,1.7789169 194.682185,1.15391186 194.215709,0.696832603 C193.749232,0.239753348 193.118989,-0.0112448495 192.466,1.08420217e-19 C191.115298,0.000814302344 190.01321,1.08157212 189.986,2.432 L189.986,7.446 L184.972,7.446 C184.319087,7.44858602 183.6944,7.71252766 183.237438,8.1788843 C182.780476,8.64524094 182.5293,9.27516911 182.54,9.928 C182.541855,11.2786098 183.621708,12.3806638 184.972,12.41 L189.986,12.41 L189.986,17.422 C189.9886,18.0747395 190.252204,18.6993159 190.718064,19.1565354 C191.183924,19.6137549 191.813326,19.8656201 192.466,19.856 C193.818242,19.8562658 194.921849,18.7739894 194.948,17.422 L194.948,12.406 L199.962,12.406 C200.614744,12.402874 201.239114,12.1387616 201.695959,11.6725243 C202.152804,11.206287 202.404157,10.5766725 202.394,9.924 C202.395343,8.57208426 201.313663,7.46816546 199.962,7.442 L194.948,7.446 Z" id="路径_771" fill="url(#linearGradient-13)" opacity="0.79"></path>
                    <circle id="椭圆_25" fill="url(#radialGradient-12)" opacity="0.74" cx="270.32" cy="76.576" r="7.5"></circle>
                    <circle id="椭圆_26" fill="url(#radialGradient-12)" opacity="0.74" cx="398.286" cy="141.24" r="7"></circle>
                    <circle id="椭圆_27" fill="url(#radialGradient-12)" cx="311.608" cy="45.254" r="19"></circle>
                </g>
            </g>
        </g>
    </g>
</svg>