<?xml version="1.0" standalone="no"?><!DOCTYPE svg PUBLIC "-//W3C//DTD SVG 1.1//EN" "http://www.w3.org/Graphics/SVG/1.1/DTD/svg11.dtd"><svg t="1593591883670" class="icon" viewBox="0 0 1024 1024" version="1.1" xmlns="http://www.w3.org/2000/svg" p-id="899" xmlns:xlink="http://www.w3.org/1999/xlink" width="200" height="200"><defs><style type="text/css"></style></defs><path d="M919.8125 399.5L751.0625 399.5c-23.203125 0-42.1875-18.984375-42.1875-42.1875 0-23.203125 18.984375-42.1875 42.1875-42.1875l68.90625 0C755.28125 213.875 641.375 146.375 512 146.375c-201.796875 0-365.625 163.828125-365.625 365.625 0 201.796875 163.828125 365.625 365.625 365.625 196.875 0 357.890625-156.09375 364.921875-351.5625l0.703125 0c0-23.203125 18.984375-42.1875 42.1875-42.1875 23.203125 0 42.1875 18.984375 42.1875 42.1875 0 2.8125 0 5.625-0.703125 7.734375C950.046875 772.15625 753.171875 962 512 962 263.796875 962 62 760.203125 62 512 62 263.796875 263.796875 62 512 62c150.46875 0 284.0625 73.828125 365.625 187.734375L877.625 188.5625c0-23.203125 18.984375-42.1875 42.1875-42.1875 23.203125 0 42.1875 18.984375 42.1875 42.1875l0 168.75C962 380.515625 943.015625 399.5 919.8125 399.5z" p-id="900"></path></svg>