<svg xmlns="http://www.w3.org/2000/svg" xmlns:xlink="http://www.w3.org/1999/xlink" width="18.494" height="18.514" viewBox="0 0 18.494 18.514">
  <defs>
    <linearGradient id="linear-gradient" x1="0.5" x2="0.5" y2="1" gradientUnits="objectBoundingBox">
      <stop offset="0" stop-color="#c3a475"/>
      <stop offset="1" stop-color="#cc8a6e"/>
    </linearGradient>
    <clipPath id="clip-path">
      <rect id="矩形_839" data-name="矩形 839" width="18.494" height="18.514" fill="url(#linear-gradient)"/>
    </clipPath>
  </defs>
  <g id="未处理-金" transform="translate(107 -16.89)">
    <g id="组_934" data-name="组 934" transform="translate(-107 16.89)">
      <g id="组_933" data-name="组 933" transform="translate(0 0)" clip-path="url(#clip-path)">
        <path id="路径_854" data-name="路径 854" d="M-97.878,17.175a9.242,9.242,0,0,0-9.242,9.242,9.242,9.242,0,0,0,9.242,9.242,9.242,9.242,0,0,0,9.242-9.242,9.242,9.242,0,0,0-9.242-9.242Zm3.622,14.749a.893.893,0,0,1-1.266,0l-3.16-3.178c-.236-.238-.215-.568-.215-1.071s-.114-6.327-.114-6.327a.9.9,0,0,1,.892-.9.9.9,0,0,1,.892.9v6.327c0,.026,2.977,2.978,2.977,2.978a.906.906,0,0,1-.007,1.271Zm0,0" transform="translate(107.117 -17.168)" fill="url(#linear-gradient)"/>
      </g>
    </g>
  </g>
</svg>
