<svg xmlns="http://www.w3.org/2000/svg" xmlns:xlink="http://www.w3.org/1999/xlink" width="34.716" height="41.666" viewBox="0 0 34.716 41.666">
  <defs>
    <clipPath id="clip-path">
      <rect id="矩形_866" data-name="矩形 866" width="34.716" height="41.666" fill="none"/>
    </clipPath>
  </defs>
  <g id="word" transform="translate(23 -37.89)">
    <g id="组_1042" data-name="组 1042" transform="translate(-23 37.89)">
      <g id="组_1041" data-name="组 1041" transform="translate(0 0)" clip-path="url(#clip-path)">
        <path id="路径_872" data-name="路径 872" d="M-21.037,37.89a2,2,0,0,0-1.458.625,2.212,2.212,0,0,0-.625,1.458v37.5a2,2,0,0,0,.625,1.458,2.057,2.057,0,0,0,1.458.625H9.519a2,2,0,0,0,1.458-.625,2.057,2.057,0,0,0,.625-1.458V49.7L-.2,37.89Zm0,0" transform="translate(23.113 -37.89)" fill="#6ccbff"/>
      </g>
    </g>
    <path id="路径_873" data-name="路径 873" d="M411.083,49.7h-9.722a2.137,2.137,0,0,1-2.084-2.083V37.89Zm0,0" transform="translate(-399.367)" fill="#c4eaff"/>
    <path id="路径_874" data-name="路径 874" d="M111.278,320.769h2.812l2.812,10.59h.035l3.09-10.59h2.708l3.125,10.59,2.847-10.59h2.708l-4.167,13.646h-2.812l-3.09-10.486h-.035l-3.125,10.451h-2.812Zm0,0" transform="translate(-126.993 -267.532)" fill="#fff"/>
  </g>
</svg>
