<svg xmlns="http://www.w3.org/2000/svg" width="46.296" height="41.666" viewBox="0 0 46.296 41.666">
  <g id="压缩包" transform="translate(87 -75.89)">
    <path id="路径_863" data-name="路径 863" d="M-43.019,550.58H-84.685A2.17,2.17,0,0,1-87,548.612V536.691h46.3v11.921a2.17,2.17,0,0,1-2.315,1.968Zm0,0" transform="translate(0 -433.023)" fill="#5acc9b"/>
    <path id="路径_864" data-name="路径 864" d="M-84.685,75.89h41.667A2.17,2.17,0,0,1-40.7,77.858V89.779H-87V77.858a2.17,2.17,0,0,1,2.315-1.968Zm0,0" fill="#6ccbff"/>
    <rect id="矩形_862" data-name="矩形 862" width="46.296" height="13.889" transform="translate(-87 89.779)" fill="#ffd766"/>
    <rect id="矩形_863" data-name="矩形 863" width="15.432" height="41.666" transform="translate(-71.568 75.89)" fill="#ff5562"/>
    <path id="路径_865" data-name="路径 865" d="M242.6,78.2h3.086V80.52H242.6Zm3.086-2.315h3.086V78.2h-3.086Zm0,4.63h3.086v2.315h-3.086ZM242.6,82.834h3.086v2.315H242.6Zm3.086,2.315h3.086v2.315h-3.086ZM242.6,87.464h3.086v2.315H242.6Zm3.086,2.315h3.086v2.315h-3.086ZM242.6,92.094h3.086v2.315H242.6Zm3.086,2.315h3.086v2.315h-3.086ZM242.6,96.723h3.086v2.315H242.6Zm3.086,2.315h3.086v2.315h-3.086Zm-3.086,2.315h3.086v2.315H242.6Zm3.086,2.315h3.086v2.315h-3.086Zm-3.086,2.315h3.086V108.3H242.6Zm3.086,2.315h3.086v2.315h-3.086Zm-3.086,2.315h3.086v2.315H242.6Zm0,4.63h3.086v2.315H242.6Zm3.086-2.315h3.086v2.315h-3.086Zm0,0" transform="translate(-309.733)" fill="#fff"/>
  </g>
</svg>
